{
  "accessors": [
    {
      "bufferView": 2,
      "componentType": 5126,
      "count": 665,
      "max": [
        35.43307113647461,
        7.874015808105469,
        19.685039520263672
      ],
      "min": [
        -35.43307113647461,
        -8.34262466430664,
        0.0
      ],
      "type": "VEC3"
    },
    {
      "bufferView": 2,
      "byteOffset": 7980,
      "componentType": 5126,
      "count": 665,
      "max": [
        1.0,
        1.0,
        1.0
      ],
      "min": [
        -1.0,
        -1.0,
        -1.0
      ],
      "type": "VEC3"
    },
    {
      "bufferView": 1,
      "componentType": 5126,
      "count": 665,
      "max": [
        0.9900420308113098,
        0.9929094314575195
      ],
      "min": [
        0.006690036505460739,
        0.010149776935577393
      ],
      "type": "VEC2"
    },
    {
      "bufferView": 1,
      "byteOffset": 5320,
      "componentType": 5126,
      "count": 665,
      "max": [
        0.9900420308113098,
        0.9929094314575195
      ],
      "min": [
        0.006690036505460739,
        0.010149776935577393
      ],
      "type": "VEC2"
    },
    {
      "bufferView": 1,
      "byteOffset": 10640,
      "componentType": 5126,
      "count": 665,
      "max": [
        0.9900420308113098,
        0.9929094314575195
      ],
      "min": [
        0.006690036505460739,
        0.010149776935577393
      ],
      "type": "VEC2"
    },
    {
      "bufferView": 0,
      "componentType": 5125,
      "count": 987,
      "type": "SCALAR"
    }
  ],
  "asset": {
    "extras": {
      "author": "khanhnguyen1189 (https://sketchfab.com/khanhnguyen1189)",
      "license": "CC-BY-4.0 (http://creativecommons.org/licenses/by/4.0/)",
      "source": "https://sketchfab.com/3d-models/tv-cabinets-b537b569e76943229083ad298505d6eb",
      "title": "TV Cabinets"
    },
    "generator": "Sketchfab-12.67.0",
    "version": "2.0"
  },
  "bufferViews": [
    {
      "buffer": 0,
      "byteLength": 3948,
      "name": "floatBufferViews",
      "target": 34963
    },
    {
      "buffer": 0,
      "byteLength": 15960,
      "byteOffset": 3948,
      "byteStride": 8,
      "name": "floatBufferViews",
      "target": 34962
    },
    {
      "buffer": 0,
      "byteLength": 15960,
      "byteOffset": 19908,
      "byteStride": 12,
      "name": "floatBufferViews",
      "target": 34962
    }
  ],
  "buffers": [
    {
      "byteLength": 35868,
      "uri": "scene.bin"
    }
  ],
  "images": [
    {
      "uri": "textures/TV_Box_baseColor.png"
    },
    {
      "uri": "textures/TV_Box_metallicRoughness.png"
    }
  ],
  "materials": [
    {
      "doubleSided": true,
      "name": "TV_Box",
      "pbrMetallicRoughness": {
        "baseColorTexture": {
          "index": 0
        },
        "metallicFactor": 0.0,
        "metallicRoughnessTexture": {
          "index": 1
        },
        "roughnessFactor": 0.54
      }
    }
  ],
  "meshes": [
    {
      "name": "Box001_TV_Box_0",
      "primitives": [
        {
          "attributes": {
            "NORMAL": 1,
            "POSITION": 0,
            "TEXCOORD_0": 2,
            "TEXCOORD_1": 3,
            "TEXCOORD_2": 4
          },
          "indices": 5,
          "material": 0,
          "mode": 4
        }
      ]
    }
  ],
  "nodes": [
    {
      "children": [
        1
      ],
      "matrix": [
        0.04271398112177849,
        0.0,
        0.0,
        0.0,
        0.0,
        9.48440906296055e-18,
        -0.04271398112177849,
        0.0,
        0.0,
        0.04271398112177849,
        9.48440906296055e-18,
        0.0,
        0.0,
        0.0,
        0.0,
        1.0
      ],
      "name": "Sketchfab_model"
    },
    {
      "children": [
        2
      ],
      "matrix": [
        1.0,
        0.0,
        0.0,
        0.0,
        0.0,
        0.0,
        1.0,
        0.0,
        0.0,
        -1.0,
        0.0,
        0.0,
        0.0,
        0.0,
        0.0,
        1.0
      ],
      "name": "TV_Box.FBX"
    },
    {
      "children": [
        3
      ],
      "name": "RootNode"
    },
    {
      "children": [
        4
      ],
      "matrix": [
        1.0,
        0.0,
        0.0,
        0.0,
        0.0,
        2.220446049250313e-16,
        -1.0,
        0.0,
        0.0,
        1.0,
        2.220446049250313e-16,
        0.0,
        0.0,
        0.0,
        -0.46860408782958984,
        1.0
      ],
      "name": "Box001"
    },
    {
      "mesh": 0,
      "name": "Box001_TV_Box_0"
    }
  ],
  "samplers": [
    {
      "magFilter": 9729,
      "minFilter": 9987,
      "wrapS": 10497,
      "wrapT": 10497
    }
  ],
  "scene": 0,
  "scenes": [
    {
      "name": "Sketchfab_Scene",
      "nodes": [
        0
      ]
    }
  ],
  "textures": [
    {
      "sampler": 0,
      "source": 0
    },
    {
      "sampler": 0,
      "source": 1
    }
  ]
}
