{
  "accessors": [
    {
      "bufferView": 2,
      "componentType": 5126,
      "count": 1358,
      "max": [
        0.666000485420227,
        1.318393588066101,
        0.6660006046295166
      ],
      "min": [
        -0.6660006046295166,
        -0.006858786568045616,
        -0.6660007238388062
      ],
      "type": "VEC3"
    },
    {
      "bufferView": 2,
      "byteOffset": 16296,
      "componentType": 5126,
      "count": 1358,
      "max": [
        0.999998152256012,
        0.9736671447753906,
        0.9999980926513672
      ],
      "min": [
        -0.999998152256012,
        -1.0,
        -0.999998152256012
      ],
      "type": "VEC3"
    },
    {
      "bufferView": 1,
      "componentType": 5126,
      "count": 1358,
      "max": [
        0.5509033203125,
        0.9917463660240173
      ],
      "min": [
        0.004201046656817198,
        0.3650572896003723
      ],
      "type": "VEC2"
    },
    {
      "bufferView": 0,
      "componentType": 5125,
      "count": 7113,
      "type": "SCALAR"
    },
    {
      "bufferView": 2,
      "byteOffset": 32592,
      "componentType": 5126,
      "count": 65532,
      "max": [
        0.5315582752227783,
        1.2565397024154663,
        0.28305870294570923
      ],
      "min": [
        -0.3222903907299042,
        1.1306358575820923,
        -0.4146079421043396
      ],
      "type": "VEC3"
    },
    {
      "bufferView": 2,
      "byteOffset": 818976,
      "componentType": 5126,
      "count": 65532,
      "max": [
        0.9999964833259583,
        0.9999669194221497,
        0.9999145865440369
      ],
      "min": [
        -0.9999960064888,
        -0.9999852776527405,
        -0.9999087452888489
      ],
      "type": "VEC3"
    },
    {
      "bufferView": 1,
      "byteOffset": 10864,
      "componentType": 5126,
      "count": 65532,
      "max": [
        0.4997193515300751,
        0.48102349042892456
      ],
      "min": [
        0.2723819613456726,
        0.296406626701355
      ],
      "type": "VEC2"
    },
    {
      "bufferView": 0,
      "byteOffset": 28452,
      "componentType": 5125,
      "count": 391830,
      "type": "SCALAR"
    },
    {
      "bufferView": 2,
      "byteOffset": 1605360,
      "componentType": 5126,
      "count": 65532,
      "max": [
        0.6333790421485901,
        1.272748351097107,
        0.6333790421485901
      ],
      "min": [
        -0.6333803534507751,
        1.1221657991409302,
        -0.6333803534507751
      ],
      "type": "VEC3"
    },
    {
      "bufferView": 2,
      "byteOffset": 2391744,
      "componentType": 5126,
      "count": 65532,
      "max": [
        0.999998927116394,
        1.0,
        0.9999904036521912
      ],
      "min": [
        -0.9999943375587463,
        -0.999993085861206,
        -0.9999456405639648
      ],
      "type": "VEC3"
    },
    {
      "bufferView": 1,
      "byteOffset": 535120,
      "componentType": 5126,
      "count": 65532,
      "max": [
        0.5285732746124268,
        0.5417848229408264
      ],
      "min": [
        0.18713735044002533,
        0.2003488838672638
      ],
      "type": "VEC2"
    },
    {
      "bufferView": 0,
      "byteOffset": 1595772,
      "componentType": 5125,
      "count": 390621,
      "type": "SCALAR"
    },
    {
      "bufferView": 2,
      "byteOffset": 3178128,
      "componentType": 5126,
      "count": 42939,
      "max": [
        0.5621746182441711,
        1.2587660551071167,
        0.46783366799354553
      ],
      "min": [
        -0.4210861921310425,
        1.1408649682998657,
        -0.4456188380718231
      ],
      "type": "VEC3"
    },
    {
      "bufferView": 2,
      "byteOffset": 3693396,
      "componentType": 5126,
      "count": 42939,
      "max": [
        0.9999852180480957,
        0.999936580657959,
        0.9998104572296143
      ],
      "min": [
        -0.9999960064888,
        -0.999869167804718,
        -0.9999707937240601
      ],
      "type": "VEC3"
    },
    {
      "bufferView": 1,
      "byteOffset": 1059376,
      "componentType": 5126,
      "count": 42939,
      "max": [
        0.5069477558135986,
        0.4892476797103882
      ],
      "min": [
        0.24618065357208252,
        0.24699437618255615
      ],
      "type": "VEC2"
    },
    {
      "bufferView": 0,
      "byteOffset": 3158256,
      "componentType": 5125,
      "count": 256845,
      "type": "SCALAR"
    },
    {
      "bufferView": 2,
      "byteOffset": 4208664,
      "componentType": 5126,
      "count": 16009,
      "max": [
        0.4420355558395386,
        2.695913314819336,
        0.28789472579956055
      ],
      "min": [
        -0.4104554057121277,
        1.0081062316894531,
        -0.838392436504364
      ],
      "type": "VEC3"
    },
    {
      "bufferView": 2,
      "byteOffset": 4400772,
      "componentType": 5126,
      "count": 16009,
      "max": [
        0.9999818801879883,
        0.9997644424438477,
        1.0
      ],
      "min": [
        -0.9999960660934448,
        -0.9997259974479675,
        -0.999998927116394
      ],
      "type": "VEC3"
    },
    {
      "bufferView": 1,
      "byteOffset": 1402888,
      "componentType": 5126,
      "count": 16009,
      "max": [
        0.9854024052619934,
        0.759381890296936
      ],
      "min": [
        0.03915220499038696,
        0.01051226258277893
      ],
      "type": "VEC2"
    },
    {
      "bufferView": 0,
      "byteOffset": 4185636,
      "componentType": 5125,
      "count": 92928,
      "type": "SCALAR"
    },
    {
      "bufferView": 2,
      "byteOffset": 4592880,
      "componentType": 5126,
      "count": 2850,
      "max": [
        0.4421333968639374,
        1.3788814544677734,
        0.5726833343505859
      ],
      "min": [
        -0.06069762632250786,
        1.2243998050689697,
        0.3013285994529724
      ],
      "type": "VEC3"
    },
    {
      "bufferView": 2,
      "byteOffset": 4627080,
      "componentType": 5126,
      "count": 2850,
      "max": [
        0.9711480140686035,
        0.9997270703315735,
        0.9996587634086609
      ],
      "min": [
        -0.997755765914917,
        -0.9999362230300903,
        -0.9998558163642883
      ],
      "type": "VEC3"
    },
    {
      "bufferView": 1,
      "byteOffset": 1530960,
      "componentType": 5126,
      "count": 2850,
      "max": [
        0.9271454811096191,
        0.9807604551315308
      ],
      "min": [
        0.8324549198150635,
        0.7799112796783447
      ],
      "type": "VEC2"
    },
    {
      "bufferView": 0,
      "byteOffset": 4557348,
      "componentType": 5125,
      "count": 17088,
      "type": "SCALAR"
    },
    {
      "bufferView": 2,
      "byteOffset": 4661280,
      "componentType": 5126,
      "count": 2850,
      "max": [
        0.5564899444580078,
        1.3041924238204956,
        -0.14961880445480347
      ],
      "min": [
        0.03230373188853264,
        1.1176892518997192,
        -0.3864659368991852
      ],
      "type": "VEC3"
    },
    {
      "bufferView": 2,
      "byteOffset": 4695480,
      "componentType": 5126,
      "count": 2850,
      "max": [
        0.9752939343452454,
        0.993549108505249,
        0.9997031688690186
      ],
      "min": [
        -0.989747941493988,
        -0.9969260692596436,
        -0.9977689981460571
      ],
      "type": "VEC3"
    },
    {
      "bufferView": 1,
      "byteOffset": 1553760,
      "componentType": 5126,
      "count": 2850,
      "max": [
        0.8197072744369507,
        0.8554345965385437
      ],
      "min": [
        0.7223649024963379,
        0.6410036087036133
      ],
      "type": "VEC2"
    },
    {
      "bufferView": 0,
      "byteOffset": 4625700,
      "componentType": 5125,
      "count": 17088,
      "type": "SCALAR"
    },
    {
      "bufferView": 2,
      "byteOffset": 4729680,
      "componentType": 5126,
      "count": 2850,
      "max": [
        -0.19962120056152344,
        1.2751816511154175,
        0.0914129838347435
      ],
      "min": [
        -0.46914899349212646,
        1.1635545492172241,
        -0.4380522072315216
      ],
      "type": "VEC3"
    },
    {
      "bufferView": 2,
      "byteOffset": 4763880,
      "componentType": 5126,
      "count": 2850,
      "max": [
        0.9688723087310791,
        0.9997266530990601,
        0.9903153777122498
      ],
      "min": [
        -0.9999980330467224,
        -0.9999930262565613,
        -0.9545812606811523
      ],
      "type": "VEC3"
    },
    {
      "bufferView": 1,
      "byteOffset": 1576560,
      "componentType": 5126,
      "count": 2850,
      "max": [
        0.9399347305297852,
        0.6832018494606018
      ],
      "min": [
        0.842839241027832,
        0.47103238105773926
      ],
      "type": "VEC2"
    },
    {
      "bufferView": 0,
      "byteOffset": 4694052,
      "componentType": 5125,
      "count": 17088,
      "type": "SCALAR"
    },
    {
      "bufferView": 2,
      "byteOffset": 4798080,
      "componentType": 5126,
      "count": 2850,
      "max": [
        -0.20633025467395782,
        1.414303183555603,
        0.317365825176239
      ],
      "min": [
        -0.5720570683479309,
        1.027659296989441,
        0.05585148558020592
      ],
      "type": "VEC3"
    },
    {
      "bufferView": 2,
      "byteOffset": 4832280,
      "componentType": 5126,
      "count": 2850,
      "max": [
        0.9944788217544556,
        0.9971806406974792,
        0.9699803590774536
      ],
      "min": [
        -0.9997666478157043,
        -0.9989495873451233,
        -0.9999268054962158
      ],
      "type": "VEC3"
    },
    {
      "bufferView": 1,
      "byteOffset": 1599360,
      "componentType": 5126,
      "count": 2850,
      "max": [
        0.7023515701293945,
        0.9907360076904297
      ],
      "min": [
        0.6012482047080994,
        0.7775154113769531
      ],
      "type": "VEC2"
    },
    {
      "bufferView": 0,
      "byteOffset": 4762404,
      "componentType": 5125,
      "count": 17088,
      "type": "SCALAR"
    },
    {
      "bufferView": 2,
      "byteOffset": 4866480,
      "componentType": 5126,
      "count": 714,
      "max": [
        0.5071620941162109,
        1.369505524635315,
        0.15889737010002136
      ],
      "min": [
        0.1703142523765564,
        1.0767685174942017,
        -0.1850041002035141
      ],
      "type": "VEC3"
    },
    {
      "bufferView": 2,
      "byteOffset": 4875048,
      "componentType": 5126,
      "count": 714,
      "max": [
        0.9993522763252258,
        0.9983571767807007,
        0.9661813378334045
      ],
      "min": [
        -0.9979541301727295,
        -0.9888792634010315,
        -0.9992883205413818
      ],
      "type": "VEC3"
    },
    {
      "bufferView": 1,
      "byteOffset": 1622160,
      "componentType": 5126,
      "count": 714,
      "max": [
        0.989174485206604,
        0.8326553106307983
      ],
      "min": [
        0.9064390063285828,
        0.6560565829277039
      ],
      "type": "VEC2"
    },
    {
      "bufferView": 0,
      "byteOffset": 4830756,
      "componentType": 5125,
      "count": 4272,
      "type": "SCALAR"
    },
    {
      "bufferView": 2,
      "byteOffset": 4883616,
      "componentType": 5126,
      "count": 2850,
      "max": [
        -186.77256774902344,
        1142.0133056640625,
        92.7300033569336
      ],
      "min": [
        -383.2801513671875,
        1060.6121826171875,
        -293.29681396484375
      ],
      "type": "VEC3"
    },
    {
      "bufferView": 2,
      "byteOffset": 4917816,
      "componentType": 5126,
      "count": 2850,
      "max": [
        0.9688611030578613,
        0.9997237324714661,
        0.99031001329422
      ],
      "min": [
        -0.9999980926513672,
        -0.999990701675415,
        -0.9557828903198242
      ],
      "type": "VEC3"
    },
    {
      "bufferView": 1,
      "byteOffset": 1627872,
      "componentType": 5126,
      "count": 2850,
      "max": [
        0.9399347305297852,
        0.6832018494606018
      ],
      "min": [
        0.842839241027832,
        0.47103238105773926
      ],
      "type": "VEC2"
    },
    {
      "bufferView": 0,
      "byteOffset": 4847844,
      "componentType": 5125,
      "count": 17088,
      "type": "SCALAR"
    }
  ],
  "asset": {
    "extras": {
      "author": "Chris (https://sketchfab.com/christianrehm)",
      "license": "CC-BY-4.0 (http://creativecommons.org/licenses/by/4.0/)",
      "source": "https://sketchfab.com/3d-models/dried-house-plant-3df6babfa64442af83f90652324ba680",
      "title": "Dried House Plant"
    },
    "generator": "Sketchfab-12.66.0",
    "version": "2.0"
  },
  "bufferViews": [
    {
      "buffer": 0,
      "byteLength": 4916196,
      "name": "floatBufferViews",
      "target": 34963
    },
    {
      "buffer": 0,
      "byteLength": 1650672,
      "byteOffset": 4916196,
      "byteStride": 8,
      "name": "floatBufferViews",
      "target": 34962
    },
    {
      "buffer": 0,
      "byteLength": 4952016,
      "byteOffset": 6566868,
      "byteStride": 12,
      "name": "floatBufferViews",
      "target": 34962
    }
  ],
  "buffers": [
    {
      "byteLength": 11518884,
      "uri": "scene.bin"
    }
  ],
  "images": [
    {
      "uri": "textures/Flowerpot_MAT_baseColor.jpeg"
    }
  ],
  "materials": [
    {
      "doubleSided": true,
      "name": "Flowerpot_MAT",
      "pbrMetallicRoughness": {
        "baseColorTexture": {
          "index": 0
        },
        "metallicFactor": 0.0
      }
    },
    {
      "doubleSided": true,
      "name": "Flower_MAT",
      "pbrMetallicRoughness": {
        "baseColorTexture": {
          "index": 0
        },
        "metallicFactor": 0.0
      }
    }
  ],
  "meshes": [
    {
      "name": "Flower_Pot_Flowerpot_MAT_0",
      "primitives": [
        {
          "attributes": {
            "NORMAL": 1,
            "POSITION": 0,
            "TEXCOORD_0": 2
          },
          "indices": 3,
          "material": 0,
          "mode": 4
        }
      ]
    },
    {
      "name": "Dirt_Flower_MAT_0",
      "primitives": [
        {
          "attributes": {
            "NORMAL": 5,
            "POSITION": 4,
            "TEXCOORD_0": 6
          },
          "indices": 7,
          "material": 1,
          "mode": 4
        }
      ]
    },
    {
      "name": "Dirt_Flower_MAT_0",
      "primitives": [
        {
          "attributes": {
            "NORMAL": 9,
            "POSITION": 8,
            "TEXCOORD_0": 10
          },
          "indices": 11,
          "material": 1,
          "mode": 4
        }
      ]
    },
    {
      "name": "Dirt_Flower_MAT_0",
      "primitives": [
        {
          "attributes": {
            "NORMAL": 13,
            "POSITION": 12,
            "TEXCOORD_0": 14
          },
          "indices": 15,
          "material": 1,
          "mode": 4
        }
      ]
    },
    {
      "name": "Flower_Flower_MAT_0",
      "primitives": [
        {
          "attributes": {
            "NORMAL": 17,
            "POSITION": 16,
            "TEXCOORD_0": 18
          },
          "indices": 19,
          "material": 1,
          "mode": 4
        }
      ]
    },
    {
      "name": "Leave_1_Flower_MAT_0",
      "primitives": [
        {
          "attributes": {
            "NORMAL": 21,
            "POSITION": 20,
            "TEXCOORD_0": 22
          },
          "indices": 23,
          "material": 1,
          "mode": 4
        }
      ]
    },
    {
      "name": "Leave_2_Flower_MAT_0",
      "primitives": [
        {
          "attributes": {
            "NORMAL": 25,
            "POSITION": 24,
            "TEXCOORD_0": 26
          },
          "indices": 27,
          "material": 1,
          "mode": 4
        }
      ]
    },
    {
      "name": "Leave_3_Flower_MAT_0",
      "primitives": [
        {
          "attributes": {
            "NORMAL": 29,
            "POSITION": 28,
            "TEXCOORD_0": 30
          },
          "indices": 31,
          "material": 1,
          "mode": 4
        }
      ]
    },
    {
      "name": "Leave_4_Flower_MAT_0",
      "primitives": [
        {
          "attributes": {
            "NORMAL": 33,
            "POSITION": 32,
            "TEXCOORD_0": 34
          },
          "indices": 35,
          "material": 1,
          "mode": 4
        }
      ]
    },
    {
      "name": "Leave_5_Flower_MAT_0",
      "primitives": [
        {
          "attributes": {
            "NORMAL": 37,
            "POSITION": 36,
            "TEXCOORD_0": 38
          },
          "indices": 39,
          "material": 1,
          "mode": 4
        }
      ]
    },
    {
      "name": "Leave_6_Flower_MAT_0",
      "primitives": [
        {
          "attributes": {
            "NORMAL": 41,
            "POSITION": 40,
            "TEXCOORD_0": 42
          },
          "indices": 43,
          "material": 1,
          "mode": 4
        }
      ]
    }
  ],
  "nodes": [
    {
      "children": [
        1
      ],
      "matrix": [
        0.8783203363418579,
        0.0,
        0.0,
        0.0,
        0.0,
        1.9502629208064846e-16,
        -0.8783203363418579,
        0.0,
        0.0,
        0.8783203363418579,
        1.9502629208064846e-16,
        0.0,
        0.0,
        0.0,
        0.0,
        1.0
      ],
      "name": "Sketchfab_model"
    },
    {
      "children": [
        2
      ],
      "matrix": [
        1.0,
        0.0,
        0.0,
        0.0,
        0.0,
        0.0,
        1.0,
        0.0,
        0.0,
        -1.0,
        0.0,
        0.0,
        0.0,
        0.0,
        0.0,
        1.0
      ],
      "name": "5bbd22a69640430bbf6642e1c2624f10.fbx"
    },
    {
      "children": [
        3,
        21
      ],
      "name": "RootNode"
    },
    {
      "children": [
        4,
        5,
        9,
        11,
        13,
        15,
        17,
        19
      ],
      "matrix": [
        -0.07225459151295471,
        8.848635422003952e-18,
        0.20839907517970713,
        0.0,
        5.253349819800281e-17,
        0.22056949138641357,
        8.848635422003952e-18,
        0.0,
        -0.20839907517970713,
        5.253349819800281e-17,
        -0.07225459151295471,
        0.0,
        0.4997825622558594,
        0.6458929181098938,
        -4.259054660797119,
        1.0
      ],
      "name": "Flower_Pot"
    },
    {
      "mesh": 0,
      "name": "Flower_Pot_Flowerpot_MAT_0"
    },
    {
      "children": [
        6,
        7,
        8
      ],
      "matrix": [
        1.0,
        9.014717831616428e-33,
        0.0,
        0.0,
        -9.014717831616428e-33,
        1.0,
        0.0,
        0.0,
        0.0,
        0.0,
        1.0,
        0.0,
        0.0,
        0.0,
        0.0,
        1.0
      ],
      "name": "Dirt"
    },
    {
      "mesh": 1,
      "name": "Dirt_Flower_MAT_0"
    },
    {
      "mesh": 2,
      "name": "Dirt_Flower_MAT_0"
    },
    {
      "mesh": 3,
      "name": "Dirt_Flower_MAT_0"
    },
    {
      "children": [
        10
      ],
      "matrix": [
        1.0,
        9.014717831616428e-33,
        0.0,
        0.0,
        -9.014717831616428e-33,
        1.0,
        0.0,
        0.0,
        0.0,
        0.0,
        1.0,
        0.0,
        0.0,
        -4.440892098500626e-16,
        -1.7763568394002505e-15,
        1.0
      ],
      "name": "Flower"
    },
    {
      "mesh": 4,
      "name": "Flower_Flower_MAT_0"
    },
    {
      "children": [
        12
      ],
      "matrix": [
        1.0,
        9.014717831616428e-33,
        0.0,
        0.0,
        -9.014717831616428e-33,
        1.0,
        0.0,
        0.0,
        0.0,
        0.0,
        1.0,
        0.0,
        0.0,
        0.004611192736774683,
        2.6645352591003757e-15,
        1.0
      ],
      "name": "Leave_1"
    },
    {
      "mesh": 5,
      "name": "Leave_1_Flower_MAT_0"
    },
    {
      "children": [
        14
      ],
      "matrix": [
        1.0,
        9.014717831616428e-33,
        0.0,
        0.0,
        -9.014717831616428e-33,
        1.0,
        0.0,
        0.0,
        0.0,
        0.0,
        1.0,
        0.0,
        -3.552713678800501e-15,
        0.0,
        8.881784197001252e-16,
        1.0
      ],
      "name": "Leave_2"
    },
    {
      "mesh": 6,
      "name": "Leave_2_Flower_MAT_0"
    },
    {
      "children": [
        16
      ],
      "matrix": [
        1.0,
        9.014717831616428e-33,
        0.0,
        0.0,
        -9.014717831616428e-33,
        1.0,
        0.0,
        0.0,
        0.0,
        0.0,
        1.0,
        0.0,
        -3.552713678800501e-15,
        0.009673764929175377,
        8.881784197001252e-16,
        1.0
      ],
      "name": "Leave_3"
    },
    {
      "mesh": 7,
      "name": "Leave_3_Flower_MAT_0"
    },
    {
      "children": [
        18
      ],
      "matrix": [
        1.0,
        9.014717831616428e-33,
        0.0,
        0.0,
        -9.014717831616428e-33,
        1.0,
        0.0,
        0.0,
        0.0,
        0.0,
        1.0,
        0.0,
        -3.552713678800501e-15,
        0.0,
        8.881784197001252e-16,
        1.0
      ],
      "name": "Leave_4"
    },
    {
      "mesh": 8,
      "name": "Leave_4_Flower_MAT_0"
    },
    {
      "children": [
        20
      ],
      "matrix": [
        1.0,
        9.014717831616428e-33,
        0.0,
        0.0,
        -9.014717831616428e-33,
        1.0,
        0.0,
        0.0,
        0.0,
        0.0,
        1.0,
        0.0,
        0.0,
        0.0,
        0.0,
        1.0
      ],
      "name": "Leave_5"
    },
    {
      "mesh": 9,
      "name": "Leave_5_Flower_MAT_0"
    },
    {
      "children": [
        22
      ],
      "matrix": [
        -0.00020932674697490301,
        8.031461062125922e-08,
        0.00030559922036261345,
        0.0,
        6.597082677912842e-05,
        0.000361694679736721,
        4.509307707395844e-05,
        0.0,
        -0.0002983935990445373,
        7.990950591439697e-05,
        -0.00020441210299180867,
        0.0,
        0.5515841245651245,
        0.2682035267353058,
        -4.134852409362793,
        1.0
      ],
      "name": "Leave_6"
    },
    {
      "mesh": 10,
      "name": "Leave_6_Flower_MAT_0"
    }
  ],
  "samplers": [
    {
      "magFilter": 9729,
      "minFilter": 9987,
      "wrapS": 10497,
      "wrapT": 10497
    }
  ],
  "scene": 0,
  "scenes": [
    {
      "name": "Sketchfab_Scene",
      "nodes": [
        0
      ]
    }
  ],
  "textures": [
    {
      "sampler": 0,
      "source": 0
    }
  ]
}
